<svg xmlns="http://www.w3.org/2000/svg" viewBox="0 0 800 300" width="100%" height="100%">
  <rect width="100%" height="100%" fill="#1A1A1A"/>
  <line x1="0" y1="30.0" x2="800" y2="30.0" stroke="#2A2A2A" stroke-width="1" opacity="0.3"/>
  <line x1="80.0" y1="0" x2="80.0" y2="300" stroke="#2A2A2A" stroke-width="1" opacity="0.3"/>
  <line x1="0" y1="60.0" x2="800" y2="60.0" stroke="#2A2A2A" stroke-width="1" opacity="0.3"/>
  <line x1="160.0" y1="0" x2="160.0" y2="300" stroke="#2A2A2A" stroke-width="1" opacity="0.3"/>
  <line x1="0" y1="90.0" x2="800" y2="90.0" stroke="#2A2A2A" stroke-width="1" opacity="0.3"/>
  <line x1="240.0" y1="0" x2="240.0" y2="300" stroke="#2A2A2A" stroke-width="1" opacity="0.3"/>
  <line x1="0" y1="120.0" x2="800" y2="120.0" stroke="#2A2A2A" stroke-width="1" opacity="0.3"/>
  <line x1="320.0" y1="0" x2="320.0" y2="300" stroke="#2A2A2A" stroke-width="1" opacity="0.3"/>
  <line x1="0" y1="150.0" x2="800" y2="150.0" stroke="#2A2A2A" stroke-width="1" opacity="0.3"/>
  <line x1="400.0" y1="0" x2="400.0" y2="300" stroke="#2A2A2A" stroke-width="1" opacity="0.3"/>
  <line x1="0" y1="180.0" x2="800" y2="180.0" stroke="#2A2A2A" stroke-width="1" opacity="0.3"/>
  <line x1="480.0" y1="0" x2="480.0" y2="300" stroke="#2A2A2A" stroke-width="1" opacity="0.3"/>
  <line x1="0" y1="210.0" x2="800" y2="210.0" stroke="#2A2A2A" stroke-width="1" opacity="0.3"/>
  <line x1="560.0" y1="0" x2="560.0" y2="300" stroke="#2A2A2A" stroke-width="1" opacity="0.3"/>
  <line x1="0" y1="240.0" x2="800" y2="240.0" stroke="#2A2A2A" stroke-width="1" opacity="0.3"/>
  <line x1="640.0" y1="0" x2="640.0" y2="300" stroke="#2A2A2A" stroke-width="1" opacity="0.3"/>
  <line x1="0" y1="270.0" x2="800" y2="270.0" stroke="#2A2A2A" stroke-width="1" opacity="0.3"/>
  <line x1="720.0" y1="0" x2="720.0" y2="300" stroke="#2A2A2A" stroke-width="1" opacity="0.3"/>
  <line x1="0" y1="81" x2="456" y2="81" stroke="#6AF089" stroke-width="1" opacity="0.5"/>
  <line x1="0" y1="49" x2="128" y2="49" stroke="#6AF089" stroke-width="1" opacity="0.5"/>
  <line x1="0" y1="19" x2="553" y2="19" stroke="#6AF089" stroke-width="1" opacity="0.5"/>
  <line x1="0" y1="93" x2="557" y2="93" stroke="#6AF089" stroke-width="1" opacity="0.5"/>
  <line x1="0" y1="266" x2="649" y2="266" stroke="#6AF089" stroke-width="1" opacity="0.5"/>
  <line x1="0" y1="82" x2="287" y2="82" stroke="#6AF089" stroke-width="1" opacity="0.5"/>
  <line x1="0" y1="243" x2="671" y2="243" stroke="#6AF089" stroke-width="1" opacity="0.5"/>
  <circle cx="329" cy="196" r="2" fill="#6AF089" opacity="0.7"/>
  <circle cx="122" cy="171" r="2" fill="#6AF089" opacity="0.7"/>
  <circle cx="722" cy="168" r="2" fill="#6AF089" opacity="0.7"/>
  <circle cx="394" cy="77" r="2" fill="#6AF089" opacity="0.7"/>
  <circle cx="205" cy="259" r="2" fill="#6AF089" opacity="0.7"/>
  <circle cx="247" cy="60" r="2" fill="#6AF089" opacity="0.7"/>
  <circle cx="420" cy="74" r="2" fill="#6AF089" opacity="0.7"/>
  <circle cx="537" cy="150" r="2" fill="#6AF089" opacity="0.7"/>
  <circle cx="158" cy="217" r="2" fill="#6AF089" opacity="0.7"/>
  <circle cx="470" cy="285" r="2" fill="#6AF089" opacity="0.7"/>
  <circle cx="343" cy="266" r="2" fill="#6AF089" opacity="0.7"/>
  <text x="50%" y="50%" fill="#E0E0E0" font-family="monospace" font-size="28" font-weight="300" letter-spacing="4" text-anchor="middle" alignment-baseline="middle">ID::826A9C8E</text>
</svg>