<svg xmlns="http://www.w3.org/2000/svg" viewBox="0 0 800 600" width="100%" height="100%">
  <rect width="100%" height="100%" fill="#1A1A1A"/>
  <line x1="400" y1="300" x2="587" y2="217" stroke="#8FBC8F" stroke-width="2" opacity="0.5"/>
  <line x1="400" y1="300" x2="398" y2="176" stroke="#8FBC8F" stroke-width="2" opacity="0.5"/>
  <line x1="400" y1="300" x2="197" y2="348" stroke="#8FBC8F" stroke-width="2" opacity="0.5"/>
  <line x1="398" y1="176" x2="197" y2="348" stroke="#66CDAA" stroke-width="1" opacity="0.3"/>
  <line x1="400" y1="300" x2="479" y2="96" stroke="#8FBC8F" stroke-width="2" opacity="0.5"/>
  <line x1="197" y1="348" x2="479" y2="96" stroke="#66CDAA" stroke-width="1" opacity="0.3"/>
  <line x1="400" y1="300" x2="239" y2="370" stroke="#8FBC8F" stroke-width="2" opacity="0.5"/>
  <line x1="400" y1="300" x2="303" y2="220" stroke="#8FBC8F" stroke-width="2" opacity="0.5"/>
  <line x1="400" y1="300" x2="615" y2="334" stroke="#8FBC8F" stroke-width="2" opacity="0.5"/>
  <line x1="303" y1="220" x2="615" y2="334" stroke="#66CDAA" stroke-width="1" opacity="0.3"/>
  <circle cx="400" cy="300" r="40" fill="#1A1A1A" stroke="#66CDAA" stroke-width="3"/>
  <text x="400" y="300" fill="#66CDAA" font-family="monospace" font-size="16" font-weight="bold" text-anchor="middle" alignment-baseline="middle">EZECHIELE</text>
  <circle cx="587" cy="217" r="21" fill="#1A1A1A" stroke="#8FBC8F" stroke-width="3"/>
  <text x="587" y="217" fill="#8FBC8F" font-family="monospace" font-size="14" font-weight="bold" text-anchor="middle" alignment-baseline="middle">UOMO</text>
  <circle cx="398" cy="176" r="26" fill="#1A1A1A" stroke="#7CB342" stroke-width="3"/>
  <text x="398" y="176" fill="#7CB342" font-family="monospace" font-size="14" font-weight="bold" text-anchor="middle" alignment-baseline="middle">FUOCO</text>
  <circle cx="197" cy="348" r="29" fill="#1A1A1A" stroke="#98FB98" stroke-width="3"/>
  <text x="197" y="348" fill="#98FB98" font-family="monospace" font-size="14" font-weight="bold" text-anchor="middle" alignment-baseline="middle">CUORE</text>
  <circle cx="479" cy="96" r="23" fill="#1A1A1A" stroke="#7CB342" stroke-width="3"/>
  <text x="479" y="96" fill="#7CB342" font-family="monospace" font-size="14" font-weight="bold" text-anchor="middle" alignment-baseline="middle">OSSA</text>
  <circle cx="239" cy="370" r="19" fill="#1A1A1A" stroke="#8FBC8F" stroke-width="3"/>
  <text x="239" y="370" fill="#8FBC8F" font-family="monospace" font-size="14" font-weight="bold" text-anchor="middle" alignment-baseline="middle">ABISSO</text>
  <circle cx="303" cy="220" r="27" fill="#1A1A1A" stroke="#7CB342" stroke-width="3"/>
  <text x="303" y="220" fill="#7CB342" font-family="monospace" font-size="14" font-weight="bold" text-anchor="middle" alignment-baseline="middle">SANGUE</text>
  <circle cx="615" cy="334" r="30" fill="#1A1A1A" stroke="#98FB98" stroke-width="3"/>
  <text x="615" y="334" fill="#98FB98" font-family="monospace" font-size="14" font-weight="bold" text-anchor="middle" alignment-baseline="middle">PIETRA</text>
</svg>