<svg xmlns="http://www.w3.org/2000/svg" viewBox="0 0 800 600" width="100%" height="100%">
  <rect width="100%" height="100%" fill="#030303"/>
  <line x1="400" y1="300" x2="390" y2="192" stroke="#00FF41" stroke-width="2" opacity="0.5"/>
  <line x1="400" y1="300" x2="271" y2="141" stroke="#00FF41" stroke-width="2" opacity="0.5"/>
  <line x1="390" y1="192" x2="271" y2="141" stroke="#008F11" stroke-width="1" opacity="0.3"/>
  <line x1="400" y1="300" x2="556" y2="384" stroke="#00FF41" stroke-width="2" opacity="0.5"/>
  <line x1="400" y1="300" x2="445" y2="527" stroke="#00FF41" stroke-width="2" opacity="0.5"/>
  <line x1="400" y1="300" x2="258" y2="270" stroke="#00FF41" stroke-width="2" opacity="0.5"/>
  <line x1="445" y1="527" x2="258" y2="270" stroke="#008F11" stroke-width="1" opacity="0.3"/>
  <line x1="400" y1="300" x2="431" y2="105" stroke="#00FF41" stroke-width="2" opacity="0.5"/>
  <line x1="258" y1="270" x2="431" y2="105" stroke="#008F11" stroke-width="1" opacity="0.3"/>
  <line x1="400" y1="300" x2="560" y2="229" stroke="#00FF41" stroke-width="2" opacity="0.5"/>
  <line x1="431" y1="105" x2="560" y2="229" stroke="#008F11" stroke-width="1" opacity="0.3"/>
  <circle cx="400" cy="300" r="40" fill="#030303" stroke="#33FF66" stroke-width="3"/>
  <text x="400" y="300" fill="#33FF66" font-family="monospace" font-size="16" font-weight="bold" text-anchor="middle" alignment-baseline="middle">GIOBBE</text>
  <circle cx="390" cy="192" r="28" fill="#030303" stroke="#00FF41" stroke-width="3"/>
  <text x="390" y="192" fill="#00FF41" font-family="monospace" font-size="16" font-weight="bold" text-anchor="middle" alignment-baseline="middle">GIOBBE</text>
  <circle cx="271" cy="141" r="25" fill="#030303" stroke="#003B00" stroke-width="3"/>
  <text x="271" y="141" fill="#003B00" font-family="monospace" font-size="14" font-weight="bold" text-anchor="middle" alignment-baseline="middle">TEOLOGIA</text>
  <circle cx="556" cy="384" r="24" fill="#030303" stroke="#008F11" stroke-width="3"/>
  <text x="556" y="384" fill="#008F11" font-family="monospace" font-size="14" font-weight="bold" text-anchor="middle" alignment-baseline="middle">UOMO</text>
  <circle cx="445" cy="527" r="24" fill="#030303" stroke="#008F11" stroke-width="3"/>
  <text x="445" y="527" fill="#008F11" font-family="monospace" font-size="14" font-weight="bold" text-anchor="middle" alignment-baseline="middle">AMICI</text>
  <circle cx="258" cy="270" r="21" fill="#030303" stroke="#008F11" stroke-width="3"/>
  <text x="258" y="270" fill="#008F11" font-family="monospace" font-size="14" font-weight="bold" text-anchor="middle" alignment-baseline="middle">RIBELLIONE</text>
  <circle cx="431" cy="105" r="21" fill="#030303" stroke="#00FF41" stroke-width="3"/>
  <text x="431" y="105" fill="#00FF41" font-family="monospace" font-size="14" font-weight="bold" text-anchor="middle" alignment-baseline="middle">REALTÀ</text>
  <circle cx="560" cy="229" r="27" fill="#030303" stroke="#00FF41" stroke-width="3"/>
  <text x="560" y="229" fill="#00FF41" font-family="monospace" font-size="14" font-weight="bold" text-anchor="middle" alignment-baseline="middle">INTEGRITÀ</text>
</svg>