<svg xmlns="http://www.w3.org/2000/svg" viewBox="0 0 800 600" width="100%" height="100%">
  <rect width="100%" height="100%" fill="#1A1A1A"/>
  <line x1="400" y1="300" x2="283" y2="390" stroke="#6AF089" stroke-width="2" opacity="0.5"/>
  <line x1="400" y1="300" x2="314" y2="232" stroke="#6AF089" stroke-width="2" opacity="0.5"/>
  <line x1="283" y1="390" x2="314" y2="232" stroke="#5CE07A" stroke-width="1" opacity="0.3"/>
  <line x1="400" y1="300" x2="553" y2="267" stroke="#6AF089" stroke-width="2" opacity="0.5"/>
  <line x1="400" y1="300" x2="377" y2="477" stroke="#6AF089" stroke-width="2" opacity="0.5"/>
  <line x1="400" y1="300" x2="265" y2="449" stroke="#6AF089" stroke-width="2" opacity="0.5"/>
  <line x1="400" y1="300" x2="483" y2="149" stroke="#6AF089" stroke-width="2" opacity="0.5"/>
  <line x1="400" y1="300" x2="290" y2="147" stroke="#6AF089" stroke-width="2" opacity="0.5"/>
  <line x1="483" y1="149" x2="290" y2="147" stroke="#5CE07A" stroke-width="1" opacity="0.3"/>
  <circle cx="400" cy="300" r="40" fill="#1A1A1A" stroke="#78F596" stroke-width="3"/>
  <text x="400" y="300" fill="#78F596" font-family="monospace" font-size="16" font-weight="bold" text-anchor="middle" alignment-baseline="middle">TESSALONIC</text>
  <circle cx="283" cy="390" r="21" fill="#1A1A1A" stroke="#5CE07A" stroke-width="3"/>
  <text x="283" y="390" fill="#5CE07A" font-family="monospace" font-size="14" font-weight="bold" text-anchor="middle" alignment-baseline="middle">PAOLO</text>
  <circle cx="314" cy="232" r="19" fill="#1A1A1A" stroke="#4CD06A" stroke-width="3"/>
  <text x="314" y="232" fill="#4CD06A" font-family="monospace" font-size="14" font-weight="bold" text-anchor="middle" alignment-baseline="middle">GIORNO</text>
  <circle cx="553" cy="267" r="28" fill="#1A1A1A" stroke="#6AF089" stroke-width="3"/>
  <text x="553" y="267" fill="#6AF089" font-family="monospace" font-size="14" font-weight="bold" text-anchor="middle" alignment-baseline="middle">PRIMA</text>
  <circle cx="377" cy="477" r="19" fill="#1A1A1A" stroke="#4CD06A" stroke-width="3"/>
  <text x="377" y="477" fill="#4CD06A" font-family="monospace" font-size="14" font-weight="bold" text-anchor="middle" alignment-baseline="middle">ESCATOLOGI</text>
  <circle cx="265" cy="449" r="24" fill="#1A1A1A" stroke="#4CD06A" stroke-width="3"/>
  <text x="265" y="449" fill="#4CD06A" font-family="monospace" font-size="14" font-weight="bold" text-anchor="middle" alignment-baseline="middle">PANICO</text>
  <circle cx="483" cy="149" r="27" fill="#1A1A1A" stroke="#78F596" stroke-width="3"/>
  <text x="483" y="149" fill="#78F596" font-family="monospace" font-size="14" font-weight="bold" text-anchor="middle" alignment-baseline="middle">NESSUNO</text>
  <circle cx="290" cy="147" r="29" fill="#1A1A1A" stroke="#4CD06A" stroke-width="3"/>
  <text x="290" y="147" fill="#4CD06A" font-family="monospace" font-size="14" font-weight="bold" text-anchor="middle" alignment-baseline="middle">GENERA</text>
</svg>