<svg xmlns="http://www.w3.org/2000/svg" viewBox="0 0 800 600" width="100%" height="100%">
  <rect width="100%" height="100%" fill="#030303"/>
  <line x1="400" y1="300" x2="276" y2="234" stroke="#00FF41" stroke-width="2" opacity="0.5"/>
  <line x1="400" y1="300" x2="339" y2="481" stroke="#00FF41" stroke-width="2" opacity="0.5"/>
  <line x1="400" y1="300" x2="521" y2="464" stroke="#00FF41" stroke-width="2" opacity="0.5"/>
  <line x1="339" y1="481" x2="521" y2="464" stroke="#008F11" stroke-width="1" opacity="0.3"/>
  <line x1="400" y1="300" x2="172" y2="314" stroke="#00FF41" stroke-width="2" opacity="0.5"/>
  <line x1="400" y1="300" x2="495" y2="164" stroke="#00FF41" stroke-width="2" opacity="0.5"/>
  <line x1="172" y1="314" x2="495" y2="164" stroke="#008F11" stroke-width="1" opacity="0.3"/>
  <line x1="400" y1="300" x2="533" y2="412" stroke="#00FF41" stroke-width="2" opacity="0.5"/>
  <line x1="400" y1="300" x2="439" y2="441" stroke="#00FF41" stroke-width="2" opacity="0.5"/>
  <circle cx="400" cy="300" r="40" fill="#030303" stroke="#008F11" stroke-width="3"/>
  <text x="400" y="300" fill="#008F11" font-family="monospace" font-size="16" font-weight="bold" text-anchor="middle" alignment-baseline="middle">CHIESE_TOR</text>
  <circle cx="276" cy="234" r="20" fill="#030303" stroke="#003B00" stroke-width="3"/>
  <text x="276" y="234" fill="#003B00" font-family="monospace" font-size="14" font-weight="bold" text-anchor="middle" alignment-baseline="middle">MAPPA</text>
  <circle cx="339" cy="481" r="20" fill="#030303" stroke="#00FF41" stroke-width="3"/>
  <text x="339" y="481" fill="#00FF41" font-family="monospace" font-size="14" font-weight="bold" text-anchor="middle" alignment-baseline="middle">TORINO</text>
  <circle cx="521" cy="464" r="25" fill="#030303" stroke="#008F11" stroke-width="3"/>
  <text x="521" y="464" fill="#008F11" font-family="monospace" font-size="14" font-weight="bold" text-anchor="middle" alignment-baseline="middle">CHIESE</text>
  <circle cx="172" cy="314" r="18" fill="#030303" stroke="#33FF66" stroke-width="3"/>
  <text x="172" y="314" fill="#33FF66" font-family="monospace" font-size="14" font-weight="bold" text-anchor="middle" alignment-baseline="middle">FUOCO</text>
  <circle cx="495" cy="164" r="16" fill="#030303" stroke="#33FF66" stroke-width="3"/>
  <text x="495" y="164" fill="#33FF66" font-family="monospace" font-size="14" font-weight="bold" text-anchor="middle" alignment-baseline="middle">SANGUE</text>
  <circle cx="533" cy="412" r="27" fill="#030303" stroke="#008F11" stroke-width="3"/>
  <text x="533" y="412" fill="#008F11" font-family="monospace" font-size="14" font-weight="bold" text-anchor="middle" alignment-baseline="middle">UNZIONE</text>
  <circle cx="439" cy="441" r="16" fill="#030303" stroke="#33FF66" stroke-width="3"/>
  <text x="439" y="441" fill="#33FF66" font-family="monospace" font-size="14" font-weight="bold" text-anchor="middle" alignment-baseline="middle">APOCALISSE</text>
</svg>