<svg xmlns="http://www.w3.org/2000/svg" viewBox="0 0 800 600" width="100%" height="100%">
  <rect width="100%" height="100%" fill="#030303"/>
  <line x1="400" y1="300" x2="269" y2="351" stroke="#00FF41" stroke-width="2" opacity="0.5"/>
  <line x1="400" y1="300" x2="417" y2="133" stroke="#00FF41" stroke-width="2" opacity="0.5"/>
  <line x1="269" y1="351" x2="417" y2="133" stroke="#008F11" stroke-width="1" opacity="0.3"/>
  <line x1="400" y1="300" x2="341" y2="105" stroke="#00FF41" stroke-width="2" opacity="0.5"/>
  <line x1="417" y1="133" x2="341" y2="105" stroke="#008F11" stroke-width="1" opacity="0.3"/>
  <line x1="400" y1="300" x2="213" y2="311" stroke="#00FF41" stroke-width="2" opacity="0.5"/>
  <line x1="400" y1="300" x2="372" y2="203" stroke="#00FF41" stroke-width="2" opacity="0.5"/>
  <line x1="213" y1="311" x2="372" y2="203" stroke="#008F11" stroke-width="1" opacity="0.3"/>
  <line x1="400" y1="300" x2="201" y2="275" stroke="#00FF41" stroke-width="2" opacity="0.5"/>
  <line x1="400" y1="300" x2="600" y2="310" stroke="#00FF41" stroke-width="2" opacity="0.5"/>
  <line x1="201" y1="275" x2="600" y2="310" stroke="#008F11" stroke-width="1" opacity="0.3"/>
  <circle cx="400" cy="300" r="40" fill="#030303" stroke="#003B00" stroke-width="3"/>
  <text x="400" y="300" fill="#003B00" font-family="monospace" font-size="16" font-weight="bold" text-anchor="middle" alignment-baseline="middle">DANIELE</text>
  <circle cx="269" cy="351" r="23" fill="#030303" stroke="#008F11" stroke-width="3"/>
  <text x="269" y="351" fill="#008F11" font-family="monospace" font-size="16" font-weight="bold" text-anchor="middle" alignment-baseline="middle">DANIELE</text>
  <circle cx="417" cy="133" r="15" fill="#030303" stroke="#00FF41" stroke-width="3"/>
  <text x="417" y="133" fill="#00FF41" font-family="monospace" font-size="13" font-weight="bold" text-anchor="middle" alignment-baseline="middle">BESTIE</text>
  <circle cx="341" cy="105" r="27" fill="#030303" stroke="#00FF41" stroke-width="3"/>
  <text x="341" y="105" fill="#00FF41" font-family="monospace" font-size="14" font-weight="bold" text-anchor="middle" alignment-baseline="middle">APOCALISSE</text>
  <circle cx="213" cy="311" r="29" fill="#030303" stroke="#00FF41" stroke-width="3"/>
  <text x="213" y="311" fill="#00FF41" font-family="monospace" font-size="14" font-weight="bold" text-anchor="middle" alignment-baseline="middle">UOMO</text>
  <circle cx="372" cy="203" r="25" fill="#030303" stroke="#003B00" stroke-width="3"/>
  <text x="372" y="203" fill="#003B00" font-family="monospace" font-size="14" font-weight="bold" text-anchor="middle" alignment-baseline="middle">FIGLIO</text>
  <circle cx="201" cy="275" r="22" fill="#030303" stroke="#008F11" stroke-width="3"/>
  <text x="201" y="275" fill="#008F11" font-family="monospace" font-size="14" font-weight="bold" text-anchor="middle" alignment-baseline="middle">GIOVANNI</text>
  <circle cx="600" cy="310" r="15" fill="#030303" stroke="#003B00" stroke-width="3"/>
  <text x="600" y="310" fill="#003B00" font-family="monospace" font-size="13" font-weight="bold" text-anchor="middle" alignment-baseline="middle">RADICI</text>
</svg>